<?xml version="1.0" encoding="utf-8" standalone="no"?>
<!DOCTYPE svg PUBLIC "-//W3C//DTD SVG 1.1//EN"
  "http://www.w3.org/Graphics/SVG/1.1/DTD/svg11.dtd">
<svg xmlns:xlink="http://www.w3.org/1999/xlink" width="402.500323pt" height="348.774844pt" viewBox="0 0 402.500323 348.774844" xmlns="http://www.w3.org/2000/svg" version="1.1">
 <metadata>
  <rdf:RDF xmlns:dc="http://purl.org/dc/elements/1.1/" xmlns:cc="http://creativecommons.org/ns#" xmlns:rdf="http://www.w3.org/1999/02/22-rdf-syntax-ns#">
   <cc:Work>
    <dc:type rdf:resource="http://purl.org/dc/dcmitype/StillImage"/>
    <dc:date>2025-07-25T12:27:12.786997</dc:date>
    <dc:format>image/svg+xml</dc:format>
    <dc:creator>
     <cc:Agent>
      <dc:title>Matplotlib v3.8.4, https://matplotlib.org/</dc:title>
     </cc:Agent>
    </dc:creator>
   </cc:Work>
  </rdf:RDF>
 </metadata>
 <defs>
  <style type="text/css">*{stroke-linejoin: round; stroke-linecap: butt}</style>
 </defs>
 <g id="figure_1">
  <g id="patch_1">
   <path d="M 0 348.774844 
L 402.500323 348.774844 
L 402.500323 0 
L 0 0 
z
" style="fill: #ffffff"/>
  </g>
  <g id="axes_1">
   <g id="patch_2">
    <path d="M 44.195313 306.9 
L 343.135023 306.9 
L 343.135023 7.2 
L 44.195313 7.2 
z
" style="fill: #ffffff"/>
   </g>
   <g id="matplotlib.axis_1">
    <g id="xtick_1">
     <g id="line2d_1">
      <path d="M 72.086817 306.9 
L 72.086817 7.2 
" clip-path="url(#p16f28d9a74)" style="fill: none; stroke: #cccccc; stroke-linecap: round"/>
     </g>
     <g id="text_1">
      <!-- 25 -->
      <g style="fill: #262626" transform="translate(65.969785 324.273594) scale(0.11 -0.11)">
       <defs>
        <path id="ArialMT-32" d="M 3222 541 
L 3222 0 
L 194 0 
Q 188 203 259 391 
Q 375 700 629 1000 
Q 884 1300 1366 1694 
Q 2113 2306 2375 2664 
Q 2638 3022 2638 3341 
Q 2638 3675 2398 3904 
Q 2159 4134 1775 4134 
Q 1369 4134 1125 3890 
Q 881 3647 878 3216 
L 300 3275 
Q 359 3922 746 4261 
Q 1134 4600 1788 4600 
Q 2447 4600 2831 4234 
Q 3216 3869 3216 3328 
Q 3216 3053 3103 2787 
Q 2991 2522 2730 2228 
Q 2469 1934 1863 1422 
Q 1356 997 1212 845 
Q 1069 694 975 541 
L 3222 541 
z
" transform="scale(0.015625)"/>
        <path id="ArialMT-35" d="M 266 1200 
L 856 1250 
Q 922 819 1161 601 
Q 1400 384 1738 384 
Q 2144 384 2425 690 
Q 2706 997 2706 1503 
Q 2706 1984 2436 2262 
Q 2166 2541 1728 2541 
Q 1456 2541 1237 2417 
Q 1019 2294 894 2097 
L 366 2166 
L 809 4519 
L 3088 4519 
L 3088 3981 
L 1259 3981 
L 1013 2750 
Q 1425 3038 1878 3038 
Q 2478 3038 2890 2622 
Q 3303 2206 3303 1553 
Q 3303 931 2941 478 
Q 2500 -78 1738 -78 
Q 1113 -78 717 272 
Q 322 622 266 1200 
z
" transform="scale(0.015625)"/>
       </defs>
       <use xlink:href="#ArialMT-32"/>
       <use xlink:href="#ArialMT-35" x="55.615234"/>
      </g>
     </g>
    </g>
    <g id="xtick_2">
     <g id="line2d_2">
      <path d="M 107.845155 306.9 
L 107.845155 7.2 
" clip-path="url(#p16f28d9a74)" style="fill: none; stroke: #cccccc; stroke-linecap: round"/>
     </g>
     <g id="text_2">
      <!-- 30 -->
      <g style="fill: #262626" transform="translate(101.728124 324.273594) scale(0.11 -0.11)">
       <defs>
        <path id="ArialMT-33" d="M 269 1209 
L 831 1284 
Q 928 806 1161 595 
Q 1394 384 1728 384 
Q 2125 384 2398 659 
Q 2672 934 2672 1341 
Q 2672 1728 2419 1979 
Q 2166 2231 1775 2231 
Q 1616 2231 1378 2169 
L 1441 2663 
Q 1497 2656 1531 2656 
Q 1891 2656 2178 2843 
Q 2466 3031 2466 3422 
Q 2466 3731 2256 3934 
Q 2047 4138 1716 4138 
Q 1388 4138 1169 3931 
Q 950 3725 888 3313 
L 325 3413 
Q 428 3978 793 4289 
Q 1159 4600 1703 4600 
Q 2078 4600 2393 4439 
Q 2709 4278 2876 4000 
Q 3044 3722 3044 3409 
Q 3044 3113 2884 2869 
Q 2725 2625 2413 2481 
Q 2819 2388 3044 2092 
Q 3269 1797 3269 1353 
Q 3269 753 2831 336 
Q 2394 -81 1725 -81 
Q 1122 -81 723 278 
Q 325 638 269 1209 
z
" transform="scale(0.015625)"/>
        <path id="ArialMT-30" d="M 266 2259 
Q 266 3072 433 3567 
Q 600 4063 929 4331 
Q 1259 4600 1759 4600 
Q 2128 4600 2406 4451 
Q 2684 4303 2865 4023 
Q 3047 3744 3150 3342 
Q 3253 2941 3253 2259 
Q 3253 1453 3087 958 
Q 2922 463 2592 192 
Q 2263 -78 1759 -78 
Q 1097 -78 719 397 
Q 266 969 266 2259 
z
M 844 2259 
Q 844 1131 1108 757 
Q 1372 384 1759 384 
Q 2147 384 2411 759 
Q 2675 1134 2675 2259 
Q 2675 3391 2411 3762 
Q 2147 4134 1753 4134 
Q 1366 4134 1134 3806 
Q 844 3388 844 2259 
z
" transform="scale(0.015625)"/>
       </defs>
       <use xlink:href="#ArialMT-33"/>
       <use xlink:href="#ArialMT-30" x="55.615234"/>
      </g>
     </g>
    </g>
    <g id="xtick_3">
     <g id="line2d_3">
      <path d="M 143.603494 306.9 
L 143.603494 7.2 
" clip-path="url(#p16f28d9a74)" style="fill: none; stroke: #cccccc; stroke-linecap: round"/>
     </g>
     <g id="text_3">
      <!-- 35 -->
      <g style="fill: #262626" transform="translate(137.486463 324.273594) scale(0.11 -0.11)">
       <use xlink:href="#ArialMT-33"/>
       <use xlink:href="#ArialMT-35" x="55.615234"/>
      </g>
     </g>
    </g>
    <g id="xtick_4">
     <g id="line2d_4">
      <path d="M 179.361833 306.9 
L 179.361833 7.2 
" clip-path="url(#p16f28d9a74)" style="fill: none; stroke: #cccccc; stroke-linecap: round"/>
     </g>
     <g id="text_4">
      <!-- 40 -->
      <g style="fill: #262626" transform="translate(173.244801 324.273594) scale(0.11 -0.11)">
       <defs>
        <path id="ArialMT-34" d="M 2069 0 
L 2069 1097 
L 81 1097 
L 81 1613 
L 2172 4581 
L 2631 4581 
L 2631 1613 
L 3250 1613 
L 3250 1097 
L 2631 1097 
L 2631 0 
L 2069 0 
z
M 2069 1613 
L 2069 3678 
L 634 1613 
L 2069 1613 
z
" transform="scale(0.015625)"/>
       </defs>
       <use xlink:href="#ArialMT-34"/>
       <use xlink:href="#ArialMT-30" x="55.615234"/>
      </g>
     </g>
    </g>
    <g id="xtick_5">
     <g id="line2d_5">
      <path d="M 215.120171 306.9 
L 215.120171 7.2 
" clip-path="url(#p16f28d9a74)" style="fill: none; stroke: #cccccc; stroke-linecap: round"/>
     </g>
     <g id="text_5">
      <!-- 45 -->
      <g style="fill: #262626" transform="translate(209.00314 324.273594) scale(0.11 -0.11)">
       <use xlink:href="#ArialMT-34"/>
       <use xlink:href="#ArialMT-35" x="55.615234"/>
      </g>
     </g>
    </g>
    <g id="xtick_6">
     <g id="line2d_6">
      <path d="M 250.87851 306.9 
L 250.87851 7.2 
" clip-path="url(#p16f28d9a74)" style="fill: none; stroke: #cccccc; stroke-linecap: round"/>
     </g>
     <g id="text_6">
      <!-- 50 -->
      <g style="fill: #262626" transform="translate(244.761479 324.273594) scale(0.11 -0.11)">
       <use xlink:href="#ArialMT-35"/>
       <use xlink:href="#ArialMT-30" x="55.615234"/>
      </g>
     </g>
    </g>
    <g id="xtick_7">
     <g id="line2d_7">
      <path d="M 286.636848 306.9 
L 286.636848 7.2 
" clip-path="url(#p16f28d9a74)" style="fill: none; stroke: #cccccc; stroke-linecap: round"/>
     </g>
     <g id="text_7">
      <!-- 55 -->
      <g style="fill: #262626" transform="translate(280.519817 324.273594) scale(0.11 -0.11)">
       <use xlink:href="#ArialMT-35"/>
       <use xlink:href="#ArialMT-35" x="55.615234"/>
      </g>
     </g>
    </g>
    <g id="xtick_8">
     <g id="line2d_8">
      <path d="M 322.395187 306.9 
L 322.395187 7.2 
" clip-path="url(#p16f28d9a74)" style="fill: none; stroke: #cccccc; stroke-linecap: round"/>
     </g>
     <g id="text_8">
      <!-- 60 -->
      <g style="fill: #262626" transform="translate(316.278156 324.273594) scale(0.11 -0.11)">
       <defs>
        <path id="ArialMT-36" d="M 3184 3459 
L 2625 3416 
Q 2550 3747 2413 3897 
Q 2184 4138 1850 4138 
Q 1581 4138 1378 3988 
Q 1113 3794 959 3422 
Q 806 3050 800 2363 
Q 1003 2672 1297 2822 
Q 1591 2972 1913 2972 
Q 2475 2972 2870 2558 
Q 3266 2144 3266 1488 
Q 3266 1056 3080 686 
Q 2894 316 2569 119 
Q 2244 -78 1831 -78 
Q 1128 -78 684 439 
Q 241 956 241 2144 
Q 241 3472 731 4075 
Q 1159 4600 1884 4600 
Q 2425 4600 2770 4297 
Q 3116 3994 3184 3459 
z
M 888 1484 
Q 888 1194 1011 928 
Q 1134 663 1356 523 
Q 1578 384 1822 384 
Q 2178 384 2434 671 
Q 2691 959 2691 1453 
Q 2691 1928 2437 2201 
Q 2184 2475 1800 2475 
Q 1419 2475 1153 2201 
Q 888 1928 888 1484 
z
" transform="scale(0.015625)"/>
       </defs>
       <use xlink:href="#ArialMT-36"/>
       <use xlink:href="#ArialMT-30" x="55.615234"/>
      </g>
     </g>
    </g>
    <g id="text_9">
     <!-- Age -->
     <g style="fill: #262626" transform="translate(182.989855 339.049219) scale(0.12 -0.12)">
      <defs>
       <path id="ArialMT-41" d="M -9 0 
L 1750 4581 
L 2403 4581 
L 4278 0 
L 3588 0 
L 3053 1388 
L 1138 1388 
L 634 0 
L -9 0 
z
M 1313 1881 
L 2866 1881 
L 2388 3150 
Q 2169 3728 2063 4100 
Q 1975 3659 1816 3225 
L 1313 1881 
z
" transform="scale(0.015625)"/>
       <path id="ArialMT-67" d="M 319 -275 
L 866 -356 
Q 900 -609 1056 -725 
Q 1266 -881 1628 -881 
Q 2019 -881 2231 -725 
Q 2444 -569 2519 -288 
Q 2563 -116 2559 434 
Q 2191 0 1641 0 
Q 956 0 581 494 
Q 206 988 206 1678 
Q 206 2153 378 2554 
Q 550 2956 876 3175 
Q 1203 3394 1644 3394 
Q 2231 3394 2613 2919 
L 2613 3319 
L 3131 3319 
L 3131 450 
Q 3131 -325 2973 -648 
Q 2816 -972 2473 -1159 
Q 2131 -1347 1631 -1347 
Q 1038 -1347 672 -1080 
Q 306 -813 319 -275 
z
M 784 1719 
Q 784 1066 1043 766 
Q 1303 466 1694 466 
Q 2081 466 2343 764 
Q 2606 1063 2606 1700 
Q 2606 2309 2336 2618 
Q 2066 2928 1684 2928 
Q 1309 2928 1046 2623 
Q 784 2319 784 1719 
z
" transform="scale(0.015625)"/>
       <path id="ArialMT-65" d="M 2694 1069 
L 3275 997 
Q 3138 488 2766 206 
Q 2394 -75 1816 -75 
Q 1088 -75 661 373 
Q 234 822 234 1631 
Q 234 2469 665 2931 
Q 1097 3394 1784 3394 
Q 2450 3394 2872 2941 
Q 3294 2488 3294 1666 
Q 3294 1616 3291 1516 
L 816 1516 
Q 847 969 1125 678 
Q 1403 388 1819 388 
Q 2128 388 2347 550 
Q 2566 713 2694 1069 
z
M 847 1978 
L 2700 1978 
Q 2663 2397 2488 2606 
Q 2219 2931 1791 2931 
Q 1403 2931 1139 2672 
Q 875 2413 847 1978 
z
" transform="scale(0.015625)"/>
      </defs>
      <use xlink:href="#ArialMT-41"/>
      <use xlink:href="#ArialMT-67" x="66.699219"/>
      <use xlink:href="#ArialMT-65" x="122.314453"/>
     </g>
    </g>
   </g>
   <g id="matplotlib.axis_2">
    <g id="ytick_1">
     <g id="line2d_9">
      <path d="M 44.195313 299.34044 
L 343.135023 299.34044 
" clip-path="url(#p16f28d9a74)" style="fill: none; stroke: #cccccc; stroke-linecap: round"/>
     </g>
     <g id="text_10">
      <!-- 4 -->
      <g style="fill: #262626" transform="translate(28.578281 303.277237) scale(0.11 -0.11)">
       <use xlink:href="#ArialMT-34"/>
      </g>
     </g>
    </g>
    <g id="ytick_2">
     <g id="line2d_10">
      <path d="M 44.195313 262.247415 
L 343.135023 262.247415 
" clip-path="url(#p16f28d9a74)" style="fill: none; stroke: #cccccc; stroke-linecap: round"/>
     </g>
     <g id="text_11">
      <!-- 6 -->
      <g style="fill: #262626" transform="translate(28.578281 266.184212) scale(0.11 -0.11)">
       <use xlink:href="#ArialMT-36"/>
      </g>
     </g>
    </g>
    <g id="ytick_3">
     <g id="line2d_11">
      <path d="M 44.195313 225.154389 
L 343.135023 225.154389 
" clip-path="url(#p16f28d9a74)" style="fill: none; stroke: #cccccc; stroke-linecap: round"/>
     </g>
     <g id="text_12">
      <!-- 8 -->
      <g style="fill: #262626" transform="translate(28.578281 229.091186) scale(0.11 -0.11)">
       <defs>
        <path id="ArialMT-38" d="M 1131 2484 
Q 781 2613 612 2850 
Q 444 3088 444 3419 
Q 444 3919 803 4259 
Q 1163 4600 1759 4600 
Q 2359 4600 2725 4251 
Q 3091 3903 3091 3403 
Q 3091 3084 2923 2848 
Q 2756 2613 2416 2484 
Q 2838 2347 3058 2040 
Q 3278 1734 3278 1309 
Q 3278 722 2862 322 
Q 2447 -78 1769 -78 
Q 1091 -78 675 323 
Q 259 725 259 1325 
Q 259 1772 486 2073 
Q 713 2375 1131 2484 
z
M 1019 3438 
Q 1019 3113 1228 2906 
Q 1438 2700 1772 2700 
Q 2097 2700 2305 2904 
Q 2513 3109 2513 3406 
Q 2513 3716 2298 3927 
Q 2084 4138 1766 4138 
Q 1444 4138 1231 3931 
Q 1019 3725 1019 3438 
z
M 838 1322 
Q 838 1081 952 856 
Q 1066 631 1291 507 
Q 1516 384 1775 384 
Q 2178 384 2440 643 
Q 2703 903 2703 1303 
Q 2703 1709 2433 1975 
Q 2163 2241 1756 2241 
Q 1359 2241 1098 1978 
Q 838 1716 838 1322 
z
" transform="scale(0.015625)"/>
       </defs>
       <use xlink:href="#ArialMT-38"/>
      </g>
     </g>
    </g>
    <g id="ytick_4">
     <g id="line2d_12">
      <path d="M 44.195313 188.061363 
L 343.135023 188.061363 
" clip-path="url(#p16f28d9a74)" style="fill: none; stroke: #cccccc; stroke-linecap: round"/>
     </g>
     <g id="text_13">
      <!-- 10 -->
      <g style="fill: #262626" transform="translate(22.46125 191.99816) scale(0.11 -0.11)">
       <defs>
        <path id="ArialMT-31" d="M 2384 0 
L 1822 0 
L 1822 3584 
Q 1619 3391 1289 3197 
Q 959 3003 697 2906 
L 697 3450 
Q 1169 3672 1522 3987 
Q 1875 4303 2022 4600 
L 2384 4600 
L 2384 0 
z
" transform="scale(0.015625)"/>
       </defs>
       <use xlink:href="#ArialMT-31"/>
       <use xlink:href="#ArialMT-30" x="55.615234"/>
      </g>
     </g>
    </g>
    <g id="ytick_5">
     <g id="line2d_13">
      <path d="M 44.195313 150.968338 
L 343.135023 150.968338 
" clip-path="url(#p16f28d9a74)" style="fill: none; stroke: #cccccc; stroke-linecap: round"/>
     </g>
     <g id="text_14">
      <!-- 12 -->
      <g style="fill: #262626" transform="translate(22.46125 154.905135) scale(0.11 -0.11)">
       <use xlink:href="#ArialMT-31"/>
       <use xlink:href="#ArialMT-32" x="55.615234"/>
      </g>
     </g>
    </g>
    <g id="ytick_6">
     <g id="line2d_14">
      <path d="M 44.195313 113.875312 
L 343.135023 113.875312 
" clip-path="url(#p16f28d9a74)" style="fill: none; stroke: #cccccc; stroke-linecap: round"/>
     </g>
     <g id="text_15">
      <!-- 14 -->
      <g style="fill: #262626" transform="translate(22.46125 117.812109) scale(0.11 -0.11)">
       <use xlink:href="#ArialMT-31"/>
       <use xlink:href="#ArialMT-34" x="55.615234"/>
      </g>
     </g>
    </g>
    <g id="ytick_7">
     <g id="line2d_15">
      <path d="M 44.195313 76.782286 
L 343.135023 76.782286 
" clip-path="url(#p16f28d9a74)" style="fill: none; stroke: #cccccc; stroke-linecap: round"/>
     </g>
     <g id="text_16">
      <!-- 16 -->
      <g style="fill: #262626" transform="translate(22.46125 80.719083) scale(0.11 -0.11)">
       <use xlink:href="#ArialMT-31"/>
       <use xlink:href="#ArialMT-36" x="55.615234"/>
      </g>
     </g>
    </g>
    <g id="ytick_8">
     <g id="line2d_16">
      <path d="M 44.195313 39.689261 
L 343.135023 39.689261 
" clip-path="url(#p16f28d9a74)" style="fill: none; stroke: #cccccc; stroke-linecap: round"/>
     </g>
     <g id="text_17">
      <!-- 18 -->
      <g style="fill: #262626" transform="translate(22.46125 43.626058) scale(0.11 -0.11)">
       <use xlink:href="#ArialMT-31"/>
       <use xlink:href="#ArialMT-38" x="55.615234"/>
      </g>
     </g>
    </g>
    <g id="text_18">
     <!-- How informal you can be -->
     <g style="fill: #262626" transform="translate(15.935625 223.078125) rotate(-90) scale(0.12 -0.12)">
      <defs>
       <path id="ArialMT-48" d="M 513 0 
L 513 4581 
L 1119 4581 
L 1119 2700 
L 3500 2700 
L 3500 4581 
L 4106 4581 
L 4106 0 
L 3500 0 
L 3500 2159 
L 1119 2159 
L 1119 0 
L 513 0 
z
" transform="scale(0.015625)"/>
       <path id="ArialMT-6f" d="M 213 1659 
Q 213 2581 725 3025 
Q 1153 3394 1769 3394 
Q 2453 3394 2887 2945 
Q 3322 2497 3322 1706 
Q 3322 1066 3130 698 
Q 2938 331 2570 128 
Q 2203 -75 1769 -75 
Q 1072 -75 642 372 
Q 213 819 213 1659 
z
M 791 1659 
Q 791 1022 1069 705 
Q 1347 388 1769 388 
Q 2188 388 2466 706 
Q 2744 1025 2744 1678 
Q 2744 2294 2464 2611 
Q 2184 2928 1769 2928 
Q 1347 2928 1069 2612 
Q 791 2297 791 1659 
z
" transform="scale(0.015625)"/>
       <path id="ArialMT-77" d="M 1034 0 
L 19 3319 
L 600 3319 
L 1128 1403 
L 1325 691 
Q 1338 744 1497 1375 
L 2025 3319 
L 2603 3319 
L 3100 1394 
L 3266 759 
L 3456 1400 
L 4025 3319 
L 4572 3319 
L 3534 0 
L 2950 0 
L 2422 1988 
L 2294 2553 
L 1622 0 
L 1034 0 
z
" transform="scale(0.015625)"/>
       <path id="ArialMT-20" transform="scale(0.015625)"/>
       <path id="ArialMT-69" d="M 425 3934 
L 425 4581 
L 988 4581 
L 988 3934 
L 425 3934 
z
M 425 0 
L 425 3319 
L 988 3319 
L 988 0 
L 425 0 
z
" transform="scale(0.015625)"/>
       <path id="ArialMT-6e" d="M 422 0 
L 422 3319 
L 928 3319 
L 928 2847 
Q 1294 3394 1984 3394 
Q 2284 3394 2536 3286 
Q 2788 3178 2913 3003 
Q 3038 2828 3088 2588 
Q 3119 2431 3119 2041 
L 3119 0 
L 2556 0 
L 2556 2019 
Q 2556 2363 2490 2533 
Q 2425 2703 2258 2804 
Q 2091 2906 1866 2906 
Q 1506 2906 1245 2678 
Q 984 2450 984 1813 
L 984 0 
L 422 0 
z
" transform="scale(0.015625)"/>
       <path id="ArialMT-66" d="M 556 0 
L 556 2881 
L 59 2881 
L 59 3319 
L 556 3319 
L 556 3672 
Q 556 4006 616 4169 
Q 697 4388 901 4523 
Q 1106 4659 1475 4659 
Q 1713 4659 2000 4603 
L 1916 4113 
Q 1741 4144 1584 4144 
Q 1328 4144 1222 4034 
Q 1116 3925 1116 3625 
L 1116 3319 
L 1763 3319 
L 1763 2881 
L 1116 2881 
L 1116 0 
L 556 0 
z
" transform="scale(0.015625)"/>
       <path id="ArialMT-72" d="M 416 0 
L 416 3319 
L 922 3319 
L 922 2816 
Q 1116 3169 1280 3281 
Q 1444 3394 1641 3394 
Q 1925 3394 2219 3213 
L 2025 2691 
Q 1819 2813 1613 2813 
Q 1428 2813 1281 2702 
Q 1134 2591 1072 2394 
Q 978 2094 978 1738 
L 978 0 
L 416 0 
z
" transform="scale(0.015625)"/>
       <path id="ArialMT-6d" d="M 422 0 
L 422 3319 
L 925 3319 
L 925 2853 
Q 1081 3097 1340 3245 
Q 1600 3394 1931 3394 
Q 2300 3394 2536 3241 
Q 2772 3088 2869 2813 
Q 3263 3394 3894 3394 
Q 4388 3394 4653 3120 
Q 4919 2847 4919 2278 
L 4919 0 
L 4359 0 
L 4359 2091 
Q 4359 2428 4304 2576 
Q 4250 2725 4106 2815 
Q 3963 2906 3769 2906 
Q 3419 2906 3187 2673 
Q 2956 2441 2956 1928 
L 2956 0 
L 2394 0 
L 2394 2156 
Q 2394 2531 2256 2718 
Q 2119 2906 1806 2906 
Q 1569 2906 1367 2781 
Q 1166 2656 1075 2415 
Q 984 2175 984 1722 
L 984 0 
L 422 0 
z
" transform="scale(0.015625)"/>
       <path id="ArialMT-61" d="M 2588 409 
Q 2275 144 1986 34 
Q 1697 -75 1366 -75 
Q 819 -75 525 192 
Q 231 459 231 875 
Q 231 1119 342 1320 
Q 453 1522 633 1644 
Q 813 1766 1038 1828 
Q 1203 1872 1538 1913 
Q 2219 1994 2541 2106 
Q 2544 2222 2544 2253 
Q 2544 2597 2384 2738 
Q 2169 2928 1744 2928 
Q 1347 2928 1158 2789 
Q 969 2650 878 2297 
L 328 2372 
Q 403 2725 575 2942 
Q 747 3159 1072 3276 
Q 1397 3394 1825 3394 
Q 2250 3394 2515 3294 
Q 2781 3194 2906 3042 
Q 3031 2891 3081 2659 
Q 3109 2516 3109 2141 
L 3109 1391 
Q 3109 606 3145 398 
Q 3181 191 3288 0 
L 2700 0 
Q 2613 175 2588 409 
z
M 2541 1666 
Q 2234 1541 1622 1453 
Q 1275 1403 1131 1340 
Q 988 1278 909 1158 
Q 831 1038 831 891 
Q 831 666 1001 516 
Q 1172 366 1500 366 
Q 1825 366 2078 508 
Q 2331 650 2450 897 
Q 2541 1088 2541 1459 
L 2541 1666 
z
" transform="scale(0.015625)"/>
       <path id="ArialMT-6c" d="M 409 0 
L 409 4581 
L 972 4581 
L 972 0 
L 409 0 
z
" transform="scale(0.015625)"/>
       <path id="ArialMT-79" d="M 397 -1278 
L 334 -750 
Q 519 -800 656 -800 
Q 844 -800 956 -737 
Q 1069 -675 1141 -563 
Q 1194 -478 1313 -144 
Q 1328 -97 1363 -6 
L 103 3319 
L 709 3319 
L 1400 1397 
Q 1534 1031 1641 628 
Q 1738 1016 1872 1384 
L 2581 3319 
L 3144 3319 
L 1881 -56 
Q 1678 -603 1566 -809 
Q 1416 -1088 1222 -1217 
Q 1028 -1347 759 -1347 
Q 597 -1347 397 -1278 
z
" transform="scale(0.015625)"/>
       <path id="ArialMT-75" d="M 2597 0 
L 2597 488 
Q 2209 -75 1544 -75 
Q 1250 -75 995 37 
Q 741 150 617 320 
Q 494 491 444 738 
Q 409 903 409 1263 
L 409 3319 
L 972 3319 
L 972 1478 
Q 972 1038 1006 884 
Q 1059 663 1231 536 
Q 1403 409 1656 409 
Q 1909 409 2131 539 
Q 2353 669 2445 892 
Q 2538 1116 2538 1541 
L 2538 3319 
L 3100 3319 
L 3100 0 
L 2597 0 
z
" transform="scale(0.015625)"/>
       <path id="ArialMT-63" d="M 2588 1216 
L 3141 1144 
Q 3050 572 2676 248 
Q 2303 -75 1759 -75 
Q 1078 -75 664 370 
Q 250 816 250 1647 
Q 250 2184 428 2587 
Q 606 2991 970 3192 
Q 1334 3394 1763 3394 
Q 2303 3394 2647 3120 
Q 2991 2847 3088 2344 
L 2541 2259 
Q 2463 2594 2264 2762 
Q 2066 2931 1784 2931 
Q 1359 2931 1093 2626 
Q 828 2322 828 1663 
Q 828 994 1084 691 
Q 1341 388 1753 388 
Q 2084 388 2306 591 
Q 2528 794 2588 1216 
z
" transform="scale(0.015625)"/>
       <path id="ArialMT-62" d="M 941 0 
L 419 0 
L 419 4581 
L 981 4581 
L 981 2947 
Q 1338 3394 1891 3394 
Q 2197 3394 2470 3270 
Q 2744 3147 2920 2923 
Q 3097 2700 3197 2384 
Q 3297 2069 3297 1709 
Q 3297 856 2875 390 
Q 2453 -75 1863 -75 
Q 1275 -75 941 416 
L 941 0 
z
M 934 1684 
Q 934 1088 1097 822 
Q 1363 388 1816 388 
Q 2184 388 2453 708 
Q 2722 1028 2722 1663 
Q 2722 2313 2464 2622 
Q 2206 2931 1841 2931 
Q 1472 2931 1203 2611 
Q 934 2291 934 1684 
z
" transform="scale(0.015625)"/>
      </defs>
      <use xlink:href="#ArialMT-48"/>
      <use xlink:href="#ArialMT-6f" x="72.216797"/>
      <use xlink:href="#ArialMT-77" x="127.832031"/>
      <use xlink:href="#ArialMT-20" x="200.048828"/>
      <use xlink:href="#ArialMT-69" x="227.832031"/>
      <use xlink:href="#ArialMT-6e" x="250.048828"/>
      <use xlink:href="#ArialMT-66" x="305.664062"/>
      <use xlink:href="#ArialMT-6f" x="333.447266"/>
      <use xlink:href="#ArialMT-72" x="389.0625"/>
      <use xlink:href="#ArialMT-6d" x="422.363281"/>
      <use xlink:href="#ArialMT-61" x="505.664062"/>
      <use xlink:href="#ArialMT-6c" x="561.279297"/>
      <use xlink:href="#ArialMT-20" x="583.496094"/>
      <use xlink:href="#ArialMT-79" x="611.279297"/>
      <use xlink:href="#ArialMT-6f" x="661.279297"/>
      <use xlink:href="#ArialMT-75" x="716.894531"/>
      <use xlink:href="#ArialMT-20" x="772.509766"/>
      <use xlink:href="#ArialMT-63" x="800.292969"/>
      <use xlink:href="#ArialMT-61" x="850.292969"/>
      <use xlink:href="#ArialMT-6e" x="905.908203"/>
      <use xlink:href="#ArialMT-20" x="961.523438"/>
      <use xlink:href="#ArialMT-62" x="989.306641"/>
      <use xlink:href="#ArialMT-65" x="1044.921875"/>
     </g>
    </g>
   </g>
   <g id="PathCollection_1">
    <defs>
     <path id="meffe23283a" d="M 0 3 
C 0.795609 3 1.55874 2.683901 2.12132 2.12132 
C 2.683901 1.55874 3 0.795609 3 0 
C 3 -0.795609 2.683901 -1.55874 2.12132 -2.12132 
C 1.55874 -2.683901 0.795609 -3 0 -3 
C -0.795609 -3 -1.55874 -2.683901 -2.12132 -2.12132 
C -2.683901 -1.55874 -3 -0.795609 -3 0 
C -3 0.795609 -2.683901 1.55874 -2.12132 2.12132 
C -1.55874 2.683901 -0.795609 3 0 3 
z
" style="stroke: #443983; stroke-opacity: 0.8"/>
    </defs>
    <g clip-path="url(#p16f28d9a74)">
     <use xlink:href="#meffe23283a" x="129.300158" y="169.702523" style="fill: #443983; fill-opacity: 0.8; stroke: #443983; stroke-opacity: 0.8"/>
     <use xlink:href="#meffe23283a" x="193.665168" y="178.275318" style="fill: #443983; fill-opacity: 0.8; stroke: #443983; stroke-opacity: 0.8"/>
     <use xlink:href="#meffe23283a" x="129.300158" y="192.444711" style="fill: #443983; fill-opacity: 0.8; stroke: #443983; stroke-opacity: 0.8"/>
     <use xlink:href="#meffe23283a" x="79.238484" y="177.200622" style="fill: #443983; fill-opacity: 0.8; stroke: #443983; stroke-opacity: 0.8"/>
     <use xlink:href="#meffe23283a" x="193.665168" y="182.339593" style="fill: #443983; fill-opacity: 0.8; stroke: #443983; stroke-opacity: 0.8"/>
    </g>
   </g>
   <g id="PolyCollection_1">
    <defs>
     <path id="m9654accbf9" d="M 79.238484 -187.847452 
L 79.238484 -145.309493 
L 80.394309 -145.563937 
L 81.550135 -145.818382 
L 82.70596 -146.072827 
L 83.861785 -146.327272 
L 85.01761 -146.581717 
L 86.173435 -146.836161 
L 87.32926 -147.090606 
L 88.485085 -147.345051 
L 89.64091 -147.599496 
L 90.796735 -147.85394 
L 91.95256 -148.108385 
L 93.108385 -148.36283 
L 94.26421 -148.617275 
L 95.420036 -148.87172 
L 96.575861 -149.126164 
L 97.731686 -149.380609 
L 98.887511 -149.635054 
L 100.043336 -149.889499 
L 101.199161 -150.143944 
L 102.354986 -150.398388 
L 103.510811 -150.652833 
L 104.666636 -150.907278 
L 105.822461 -151.161723 
L 106.978286 -151.416167 
L 108.134112 -151.670612 
L 109.289937 -151.925057 
L 110.445762 -152.179502 
L 111.601587 -152.433947 
L 112.757412 -152.688391 
L 113.913237 -152.942836 
L 115.069062 -153.197281 
L 116.224887 -153.451726 
L 117.380712 -153.70617 
L 118.536537 -153.960615 
L 119.692362 -154.21506 
L 120.848187 -154.469505 
L 122.004013 -154.87656 
L 123.159838 -155.106828 
L 124.315663 -155.337097 
L 125.471488 -155.567366 
L 126.627313 -155.797635 
L 127.783138 -156.027904 
L 128.938963 -156.258173 
L 130.094788 -156.454887 
L 131.250613 -156.636348 
L 132.406438 -156.817809 
L 133.562263 -156.99927 
L 134.718089 -157.180731 
L 135.873914 -157.362193 
L 137.029739 -157.543654 
L 138.185564 -157.725115 
L 139.341389 -157.906576 
L 140.497214 -158.088037 
L 141.653039 -158.269498 
L 142.808864 -158.45096 
L 143.964689 -158.632421 
L 145.120514 -158.813882 
L 146.276339 -158.774327 
L 147.432164 -158.553639 
L 148.58799 -158.332951 
L 149.743815 -158.112263 
L 150.89964 -157.891575 
L 152.055465 -157.670888 
L 153.21129 -157.4502 
L 154.367115 -157.229512 
L 155.52294 -157.008824 
L 156.678765 -156.788136 
L 157.83459 -156.567448 
L 158.990415 -156.34676 
L 160.14624 -156.126073 
L 161.302066 -155.905385 
L 162.457891 -155.684697 
L 163.613716 -155.464009 
L 164.769541 -155.243321 
L 165.925366 -155.022633 
L 167.081191 -154.801946 
L 168.237016 -154.581258 
L 169.392841 -154.36057 
L 170.548666 -154.139882 
L 171.704491 -154.725477 
L 172.860316 -155.470127 
L 174.016141 -156.214776 
L 175.171967 -156.88888 
L 176.327792 -156.711948 
L 177.483617 -156.910545 
L 178.639442 -157.648942 
L 179.795267 -158.387339 
L 180.951092 -159.125737 
L 182.106917 -159.864134 
L 183.262742 -159.96744 
L 184.418567 -159.935039 
L 185.574392 -159.902638 
L 186.730217 -159.870237 
L 187.886043 -159.837836 
L 189.041868 -159.805435 
L 190.197693 -159.773034 
L 191.353518 -159.740633 
L 192.509343 -159.708232 
L 193.665168 -159.675831 
L 193.665168 -174.602732 
L 193.665168 -174.602732 
L 192.509343 -174.598785 
L 191.353518 -174.594838 
L 190.197693 -174.590891 
L 189.041868 -174.586944 
L 187.886043 -174.582998 
L 186.730217 -174.579051 
L 185.574392 -174.575104 
L 184.418567 -174.571157 
L 183.262742 -174.56721 
L 182.106917 -174.563263 
L 180.951092 -174.559317 
L 179.795267 -174.55537 
L 178.639442 -174.551423 
L 177.483617 -174.547476 
L 176.327792 -174.543529 
L 175.171967 -174.539583 
L 174.016141 -174.535636 
L 172.860316 -174.531689 
L 171.704491 -174.527742 
L 170.548666 -174.523795 
L 169.392841 -174.519848 
L 168.237016 -174.515902 
L 167.081191 -174.511955 
L 165.925366 -174.508008 
L 164.769541 -174.504061 
L 163.613716 -174.502088 
L 162.457891 -174.587295 
L 161.302066 -174.545447 
L 160.14624 -174.503599 
L 158.990415 -174.649175 
L 157.83459 -174.821366 
L 156.678765 -174.993556 
L 155.52294 -175.165747 
L 154.367115 -175.337937 
L 153.21129 -175.444284 
L 152.055465 -175.565573 
L 150.89964 -175.743694 
L 149.743815 -175.921814 
L 148.58799 -176.097398 
L 147.432164 -176.27567 
L 146.276339 -176.453943 
L 145.120514 -176.632215 
L 143.964689 -176.810488 
L 142.808864 -176.98876 
L 141.653039 -177.167033 
L 140.497214 -177.345305 
L 139.341389 -177.523578 
L 138.185564 -177.701851 
L 137.029739 -177.880123 
L 135.873914 -178.058396 
L 134.718089 -178.236668 
L 133.562263 -178.414941 
L 132.406438 -178.593213 
L 131.250613 -178.771486 
L 130.094788 -178.949758 
L 128.938963 -179.135634 
L 127.783138 -179.338234 
L 126.627313 -179.540834 
L 125.471488 -179.743435 
L 124.315663 -179.946035 
L 123.159838 -180.148636 
L 122.004013 -180.351236 
L 120.848187 -180.553837 
L 119.692362 -180.756437 
L 118.536537 -180.959037 
L 117.380712 -181.161638 
L 116.224887 -181.364238 
L 115.069062 -181.566839 
L 113.913237 -181.769439 
L 112.757412 -181.97204 
L 111.601587 -182.17464 
L 110.445762 -182.37724 
L 109.289937 -182.579841 
L 108.134112 -182.782441 
L 106.978286 -182.985042 
L 105.822461 -183.187642 
L 104.666636 -183.390243 
L 103.510811 -183.592843 
L 102.354986 -183.795444 
L 101.199161 -183.998044 
L 100.043336 -184.200644 
L 98.887511 -184.403245 
L 97.731686 -184.605845 
L 96.575861 -184.808446 
L 95.420036 -185.011046 
L 94.26421 -185.213647 
L 93.108385 -185.416247 
L 91.95256 -185.618847 
L 90.796735 -185.821448 
L 89.64091 -186.024048 
L 88.485085 -186.226649 
L 87.32926 -186.429249 
L 86.173435 -186.63185 
L 85.01761 -186.83445 
L 83.861785 -187.03705 
L 82.70596 -187.239651 
L 81.550135 -187.442251 
L 80.394309 -187.644852 
L 79.238484 -187.847452 
z
" style="stroke: #ffffff; stroke-opacity: 0.15"/>
    </defs>
    <g clip-path="url(#p16f28d9a74)">
     <use xlink:href="#m9654accbf9" x="0" y="348.774844" style="fill: #443983; fill-opacity: 0.15; stroke: #ffffff; stroke-opacity: 0.15"/>
    </g>
   </g>
   <g id="PathCollection_2">
    <defs>
     <path id="m710f8f0b3f" d="M 0 3 
C 0.795609 3 1.55874 2.683901 2.12132 2.12132 
C 2.683901 1.55874 3 0.795609 3 0 
C 3 -0.795609 2.683901 -1.55874 2.12132 -2.12132 
C 1.55874 -2.683901 0.795609 -3 0 -3 
C -0.795609 -3 -1.55874 -2.683901 -2.12132 -2.12132 
C -2.683901 -1.55874 -3 -0.795609 -3 0 
C -3 0.795609 -2.683901 1.55874 -2.12132 2.12132 
C -1.55874 2.683901 -0.795609 3 0 3 
z
" style="stroke: #31688e; stroke-opacity: 0.8"/>
    </defs>
    <g clip-path="url(#p16f28d9a74)">
     <use xlink:href="#m710f8f0b3f" x="136.451826" y="205.325941" style="fill: #31688e; fill-opacity: 0.8; stroke: #31688e; stroke-opacity: 0.8"/>
     <use xlink:href="#m710f8f0b3f" x="122.148491" y="207.118671" style="fill: #31688e; fill-opacity: 0.8; stroke: #31688e; stroke-opacity: 0.8"/>
    </g>
   </g>
   <g id="PolyCollection_2">
    <defs>
     <path id="m9af15d8c38" d="M 122.148491 -141.656172 
L 122.148491 -133.563305 
L 122.292969 -133.663159 
L 122.437447 -133.763014 
L 122.581925 -133.862868 
L 122.726403 -133.962723 
L 122.870881 -134.062577 
L 123.01536 -134.162432 
L 123.159838 -134.262286 
L 123.304316 -134.362141 
L 123.448794 -134.461995 
L 123.593272 -134.56185 
L 123.73775 -134.661704 
L 123.882228 -134.761559 
L 124.026706 -134.861413 
L 124.171185 -134.961268 
L 124.315663 -135.061122 
L 124.460141 -135.160977 
L 124.604619 -135.260832 
L 124.749097 -135.360686 
L 124.893575 -135.460541 
L 125.038053 -135.560395 
L 125.182532 -135.66025 
L 125.32701 -135.760104 
L 125.471488 -135.859959 
L 125.615966 -135.959813 
L 125.760444 -136.059668 
L 125.904922 -136.159522 
L 126.0494 -136.259377 
L 126.193879 -136.359231 
L 126.338357 -136.459086 
L 126.482835 -136.55894 
L 126.627313 -136.658795 
L 126.771791 -136.758649 
L 126.916269 -136.858504 
L 127.060747 -136.958359 
L 127.205225 -137.058213 
L 127.349704 -137.158068 
L 127.494182 -137.257922 
L 127.63866 -137.357777 
L 127.783138 -137.457631 
L 127.927616 -137.557486 
L 128.072094 -137.65734 
L 128.216572 -137.757195 
L 128.361051 -137.857049 
L 128.505529 -137.956904 
L 128.650007 -138.056758 
L 128.794485 -138.156613 
L 128.938963 -138.256467 
L 129.083441 -138.356322 
L 129.227919 -138.456176 
L 129.372398 -138.556031 
L 129.516876 -138.655886 
L 129.661354 -138.75574 
L 129.805832 -138.855595 
L 129.95031 -138.955449 
L 130.094788 -139.055304 
L 130.239266 -139.155158 
L 130.383744 -139.255013 
L 130.528223 -139.354867 
L 130.672701 -139.454722 
L 130.817179 -139.554576 
L 130.961657 -139.654431 
L 131.106135 -139.754285 
L 131.250613 -139.85414 
L 131.395091 -139.953994 
L 131.53957 -140.053849 
L 131.684048 -140.153704 
L 131.828526 -140.253558 
L 131.973004 -140.353413 
L 132.117482 -140.453267 
L 132.26196 -140.553122 
L 132.406438 -140.652976 
L 132.550916 -140.752831 
L 132.695395 -140.852685 
L 132.839873 -140.95254 
L 132.984351 -141.052394 
L 133.128829 -141.152249 
L 133.273307 -141.252103 
L 133.417785 -141.351958 
L 133.562263 -141.451812 
L 133.706742 -141.551667 
L 133.85122 -141.651521 
L 133.995698 -141.751376 
L 134.140176 -141.851231 
L 134.284654 -141.951085 
L 134.429132 -142.05094 
L 134.57361 -142.150794 
L 134.718089 -142.250649 
L 134.862567 -142.350503 
L 135.007045 -142.450358 
L 135.151523 -142.550212 
L 135.296001 -142.650067 
L 135.440479 -142.749921 
L 135.584957 -142.849776 
L 135.729435 -142.94963 
L 135.873914 -143.049485 
L 136.018392 -143.149339 
L 136.16287 -143.249194 
L 136.307348 -143.349048 
L 136.451826 -143.448903 
L 136.451826 -152.046514 
L 136.451826 -152.046514 
L 136.307348 -151.941561 
L 136.16287 -151.836608 
L 136.018392 -151.731655 
L 135.873914 -151.626703 
L 135.729435 -151.52175 
L 135.584957 -151.416797 
L 135.440479 -151.311844 
L 135.296001 -151.206891 
L 135.151523 -151.101938 
L 135.007045 -150.996985 
L 134.862567 -150.892032 
L 134.718089 -150.787079 
L 134.57361 -150.682126 
L 134.429132 -150.577173 
L 134.284654 -150.47222 
L 134.140176 -150.367267 
L 133.995698 -150.262314 
L 133.85122 -150.157361 
L 133.706742 -150.052408 
L 133.562263 -149.947455 
L 133.417785 -149.842502 
L 133.273307 -149.737549 
L 133.128829 -149.632596 
L 132.984351 -149.527644 
L 132.839873 -149.422691 
L 132.695395 -149.317738 
L 132.550916 -149.212785 
L 132.406438 -149.107832 
L 132.26196 -149.002879 
L 132.117482 -148.897926 
L 131.973004 -148.792973 
L 131.828526 -148.68802 
L 131.684048 -148.583067 
L 131.53957 -148.478114 
L 131.395091 -148.373161 
L 131.250613 -148.268208 
L 131.106135 -148.163255 
L 130.961657 -148.058302 
L 130.817179 -147.953349 
L 130.672701 -147.848396 
L 130.528223 -147.743443 
L 130.383744 -147.63849 
L 130.239266 -147.533538 
L 130.094788 -147.428585 
L 129.95031 -147.323632 
L 129.805832 -147.218679 
L 129.661354 -147.113726 
L 129.516876 -147.008773 
L 129.372398 -146.90382 
L 129.227919 -146.798867 
L 129.083441 -146.693914 
L 128.938963 -146.588961 
L 128.794485 -146.484008 
L 128.650007 -146.379055 
L 128.505529 -146.274102 
L 128.361051 -146.169149 
L 128.216572 -146.064196 
L 128.072094 -145.959243 
L 127.927616 -145.85429 
L 127.783138 -145.749337 
L 127.63866 -145.644384 
L 127.494182 -145.539431 
L 127.349704 -145.434479 
L 127.205225 -145.329526 
L 127.060747 -145.224573 
L 126.916269 -145.11962 
L 126.771791 -145.014667 
L 126.627313 -144.909714 
L 126.482835 -144.804761 
L 126.338357 -144.699808 
L 126.193879 -144.594855 
L 126.0494 -144.489902 
L 125.904922 -144.384949 
L 125.760444 -144.279996 
L 125.615966 -144.175043 
L 125.471488 -144.07009 
L 125.32701 -143.965137 
L 125.182532 -143.860184 
L 125.038053 -143.755231 
L 124.893575 -143.650278 
L 124.749097 -143.545325 
L 124.604619 -143.440372 
L 124.460141 -143.33542 
L 124.315663 -143.230467 
L 124.171185 -143.125514 
L 124.026706 -143.020561 
L 123.882228 -142.915608 
L 123.73775 -142.810655 
L 123.593272 -142.705702 
L 123.448794 -142.600749 
L 123.304316 -142.495796 
L 123.159838 -142.390843 
L 123.01536 -142.28589 
L 122.870881 -142.180937 
L 122.726403 -142.075984 
L 122.581925 -141.971031 
L 122.437447 -141.866078 
L 122.292969 -141.761125 
L 122.148491 -141.656172 
z
" style="stroke: #ffffff; stroke-opacity: 0.15"/>
    </defs>
    <g clip-path="url(#p16f28d9a74)">
     <use xlink:href="#m9af15d8c38" x="0" y="348.774844" style="fill: #31688e; fill-opacity: 0.15; stroke: #ffffff; stroke-opacity: 0.15"/>
    </g>
   </g>
   <g id="PathCollection_3">
    <defs>
     <path id="m78a97ab2d3" d="M 0 3 
C 0.795609 3 1.55874 2.683901 2.12132 2.12132 
C 2.683901 1.55874 3 0.795609 3 0 
C 3 -0.795609 2.683901 -1.55874 2.12132 -2.12132 
C 1.55874 -2.683901 0.795609 -3 0 -3 
C -0.795609 -3 -1.55874 -2.683901 -2.12132 -2.12132 
C -2.683901 -1.55874 -3 -0.795609 -3 0 
C -3 0.795609 -2.683901 1.55874 -2.12132 2.12132 
C -1.55874 2.683901 -0.795609 3 0 3 
z
" style="stroke: #21918c; stroke-opacity: 0.8"/>
    </defs>
    <g clip-path="url(#p16f28d9a74)">
     <use xlink:href="#m78a97ab2d3" x="114.996823" y="237.219201" style="fill: #21918c; fill-opacity: 0.8; stroke: #21918c; stroke-opacity: 0.8"/>
     <use xlink:href="#m78a97ab2d3" x="107.845155" y="201.126209" style="fill: #21918c; fill-opacity: 0.8; stroke: #21918c; stroke-opacity: 0.8"/>
     <use xlink:href="#m78a97ab2d3" x="107.845155" y="195.76652" style="fill: #21918c; fill-opacity: 0.8; stroke: #21918c; stroke-opacity: 0.8"/>
    </g>
   </g>
   <g id="PolyCollection_3">
    <defs>
     <path id="m5288c0d49f" d="M 107.845155 -153.008324 
L 107.845155 -107.163204 
L 107.917394 -107.207572 
L 107.989633 -107.25194 
L 108.061872 -107.296308 
L 108.134112 -107.340676 
L 108.206351 -107.385044 
L 108.27859 -107.429412 
L 108.350829 -107.47378 
L 108.423068 -107.518148 
L 108.495307 -107.562517 
L 108.567546 -107.606885 
L 108.639785 -107.651253 
L 108.712024 -107.695621 
L 108.784263 -107.739989 
L 108.856502 -107.784357 
L 108.928741 -107.828725 
L 109.00098 -107.873093 
L 109.073219 -107.917461 
L 109.145458 -107.961829 
L 109.217698 -108.006197 
L 109.289937 -108.050565 
L 109.362176 -108.094933 
L 109.434415 -108.139301 
L 109.506654 -108.183669 
L 109.578893 -108.228038 
L 109.651132 -108.272406 
L 109.723371 -108.316774 
L 109.79561 -108.361142 
L 109.867849 -108.40551 
L 109.940088 -108.449878 
L 110.012327 -108.494246 
L 110.084566 -108.538614 
L 110.156805 -108.582982 
L 110.229045 -108.62735 
L 110.301284 -108.671718 
L 110.373523 -108.716086 
L 110.445762 -108.760454 
L 110.518001 -108.804822 
L 110.59024 -108.849191 
L 110.662479 -108.893559 
L 110.734718 -108.937927 
L 110.806957 -108.982295 
L 110.879196 -109.026663 
L 110.951435 -109.071031 
L 111.023674 -109.115399 
L 111.095913 -109.159767 
L 111.168152 -109.204135 
L 111.240391 -109.248503 
L 111.312631 -109.292871 
L 111.38487 -109.337239 
L 111.457109 -109.381607 
L 111.529348 -109.425975 
L 111.601587 -109.470343 
L 111.673826 -109.514712 
L 111.746065 -109.55908 
L 111.818304 -109.603448 
L 111.890543 -109.647816 
L 111.962782 -109.692184 
L 112.035021 -109.736552 
L 112.10726 -109.78092 
L 112.179499 -109.825288 
L 112.251738 -109.869656 
L 112.323977 -109.914024 
L 112.396217 -109.958392 
L 112.468456 -110.00276 
L 112.540695 -110.047128 
L 112.612934 -110.091496 
L 112.685173 -110.135864 
L 112.757412 -110.180233 
L 112.829651 -110.224601 
L 112.90189 -110.268969 
L 112.974129 -110.313337 
L 113.046368 -110.357705 
L 113.118607 -110.402073 
L 113.190846 -110.446441 
L 113.263085 -110.490809 
L 113.335324 -110.535177 
L 113.407563 -110.579545 
L 113.479803 -110.623913 
L 113.552042 -110.668281 
L 113.624281 -110.712649 
L 113.69652 -110.757017 
L 113.768759 -110.801385 
L 113.840998 -110.845754 
L 113.913237 -110.890122 
L 113.985476 -110.93449 
L 114.057715 -110.978858 
L 114.129954 -111.023226 
L 114.202193 -111.067594 
L 114.274432 -111.111962 
L 114.346671 -111.15633 
L 114.41891 -111.200698 
L 114.49115 -111.245066 
L 114.563389 -111.289434 
L 114.635628 -111.333802 
L 114.707867 -111.37817 
L 114.780106 -111.422538 
L 114.852345 -111.466906 
L 114.924584 -111.511275 
L 114.996823 -111.555643 
L 114.996823 -158.92708 
L 114.996823 -158.92708 
L 114.924584 -158.867294 
L 114.852345 -158.807509 
L 114.780106 -158.747723 
L 114.707867 -158.687938 
L 114.635628 -158.628153 
L 114.563389 -158.568367 
L 114.49115 -158.508582 
L 114.41891 -158.448796 
L 114.346671 -158.389011 
L 114.274432 -158.329226 
L 114.202193 -158.26944 
L 114.129954 -158.209655 
L 114.057715 -158.149869 
L 113.985476 -158.090084 
L 113.913237 -158.030299 
L 113.840998 -157.970513 
L 113.768759 -157.910728 
L 113.69652 -157.850942 
L 113.624281 -157.791157 
L 113.552042 -157.731371 
L 113.479803 -157.671586 
L 113.407563 -157.611801 
L 113.335324 -157.552015 
L 113.263085 -157.49223 
L 113.190846 -157.432444 
L 113.118607 -157.372659 
L 113.046368 -157.312874 
L 112.974129 -157.253088 
L 112.90189 -157.193303 
L 112.829651 -157.133517 
L 112.757412 -157.073732 
L 112.685173 -157.013946 
L 112.612934 -156.954161 
L 112.540695 -156.894376 
L 112.468456 -156.83459 
L 112.396217 -156.774805 
L 112.323977 -156.715019 
L 112.251738 -156.655234 
L 112.179499 -156.595449 
L 112.10726 -156.535663 
L 112.035021 -156.475878 
L 111.962782 -156.416092 
L 111.890543 -156.356307 
L 111.818304 -156.296522 
L 111.746065 -156.236736 
L 111.673826 -156.176951 
L 111.601587 -156.117165 
L 111.529348 -156.05738 
L 111.457109 -155.997594 
L 111.38487 -155.937809 
L 111.312631 -155.878024 
L 111.240391 -155.818238 
L 111.168152 -155.758453 
L 111.095913 -155.698667 
L 111.023674 -155.638882 
L 110.951435 -155.579097 
L 110.879196 -155.519311 
L 110.806957 -155.459526 
L 110.734718 -155.39974 
L 110.662479 -155.339955 
L 110.59024 -155.280169 
L 110.518001 -155.220384 
L 110.445762 -155.160599 
L 110.373523 -155.100813 
L 110.301284 -155.041028 
L 110.229045 -154.981242 
L 110.156805 -154.921457 
L 110.084566 -154.861672 
L 110.012327 -154.801886 
L 109.940088 -154.742101 
L 109.867849 -154.682315 
L 109.79561 -154.62253 
L 109.723371 -154.562745 
L 109.651132 -154.502959 
L 109.578893 -154.443174 
L 109.506654 -154.383388 
L 109.434415 -154.323603 
L 109.362176 -154.263817 
L 109.289937 -154.204032 
L 109.217698 -154.144247 
L 109.145458 -154.084461 
L 109.073219 -154.024676 
L 109.00098 -153.96489 
L 108.928741 -153.905105 
L 108.856502 -153.84532 
L 108.784263 -153.785534 
L 108.712024 -153.725749 
L 108.639785 -153.665963 
L 108.567546 -153.606178 
L 108.495307 -153.546392 
L 108.423068 -153.486607 
L 108.350829 -153.426822 
L 108.27859 -153.367036 
L 108.206351 -153.307251 
L 108.134112 -153.247465 
L 108.061872 -153.18768 
L 107.989633 -153.127895 
L 107.917394 -153.068109 
L 107.845155 -153.008324 
z
" style="stroke: #ffffff; stroke-opacity: 0.15"/>
    </defs>
    <g clip-path="url(#p16f28d9a74)">
     <use xlink:href="#m5288c0d49f" x="0" y="348.774844" style="fill: #21918c; fill-opacity: 0.15; stroke: #ffffff; stroke-opacity: 0.15"/>
    </g>
   </g>
   <g id="PathCollection_4">
    <defs>
     <path id="ma198d8fd97" d="M 0 3 
C 0.795609 3 1.55874 2.683901 2.12132 2.12132 
C 2.683901 1.55874 3 0.795609 3 0 
C 3 -0.795609 2.683901 -1.55874 2.12132 -2.12132 
C 1.55874 -2.683901 0.795609 -3 0 -3 
C -0.795609 -3 -1.55874 -2.683901 -2.12132 -2.12132 
C -2.683901 -1.55874 -3 -0.795609 -3 0 
C -3 0.795609 -2.683901 1.55874 -2.12132 2.12132 
C -1.55874 2.683901 -0.795609 3 0 3 
z
" style="stroke: #35b779; stroke-opacity: 0.8"/>
    </defs>
    <g clip-path="url(#p16f28d9a74)">
     <use xlink:href="#ma198d8fd97" x="86.390152" y="200.091766" style="fill: #35b779; fill-opacity: 0.8; stroke: #35b779; stroke-opacity: 0.8"/>
     <use xlink:href="#ma198d8fd97" x="114.996823" y="172.448083" style="fill: #35b779; fill-opacity: 0.8; stroke: #35b779; stroke-opacity: 0.8"/>
     <use xlink:href="#ma198d8fd97" x="86.390152" y="186.783251" style="fill: #35b779; fill-opacity: 0.8; stroke: #35b779; stroke-opacity: 0.8"/>
     <use xlink:href="#ma198d8fd97" x="100.693488" y="175.489908" style="fill: #35b779; fill-opacity: 0.8; stroke: #35b779; stroke-opacity: 0.8"/>
     <use xlink:href="#ma198d8fd97" x="272.333513" y="188.453777" style="fill: #35b779; fill-opacity: 0.8; stroke: #35b779; stroke-opacity: 0.8"/>
     <use xlink:href="#ma198d8fd97" x="143.603494" y="214.083533" style="fill: #35b779; fill-opacity: 0.8; stroke: #35b779; stroke-opacity: 0.8"/>
    </g>
   </g>
   <g id="PolyCollection_4">
    <defs>
     <path id="mc38a0912ca" d="M 86.390152 -179.483474 
L 86.390152 -145.539606 
L 88.268368 -145.645854 
L 90.146584 -145.752102 
L 92.024799 -145.85835 
L 93.903015 -145.964598 
L 95.781231 -146.070847 
L 97.659447 -145.89913 
L 99.537662 -145.455077 
L 101.415878 -145.107961 
L 103.294094 -145.253405 
L 105.17231 -145.404709 
L 107.050526 -145.327678 
L 108.928741 -145.334256 
L 110.806957 -145.238907 
L 112.685173 -144.699042 
L 114.563389 -144.483966 
L 116.441604 -143.85578 
L 118.31982 -143.812953 
L 120.198036 -143.849343 
L 122.076252 -143.711512 
L 123.954467 -143.357286 
L 125.832683 -142.777315 
L 127.710899 -142.257113 
L 129.589115 -141.733521 
L 131.46733 -141.680009 
L 133.345546 -140.991641 
L 135.223762 -140.482398 
L 137.101978 -139.738996 
L 138.980194 -138.92654 
L 140.858409 -138.238172 
L 142.736625 -136.791175 
L 144.614841 -135.705245 
L 146.493057 -134.614846 
L 148.371272 -133.432914 
L 150.249488 -132.754884 
L 152.127704 -132.106839 
L 154.00592 -131.338458 
L 155.884135 -130.259714 
L 157.762351 -129.58194 
L 159.640567 -128.281964 
L 161.518783 -127.41328 
L 163.396999 -126.460309 
L 165.275214 -125.61057 
L 167.15343 -124.715155 
L 169.031646 -123.483349 
L 170.909862 -122.247244 
L 172.788077 -121.011139 
L 174.666293 -119.775034 
L 176.544509 -118.538929 
L 178.422725 -117.302824 
L 180.30094 -116.066719 
L 182.179156 -114.830614 
L 184.057372 -113.594509 
L 185.935588 -112.358404 
L 187.813803 -111.122299 
L 189.692019 -109.886194 
L 191.570235 -108.650089 
L 193.448451 -107.413984 
L 195.326667 -106.177878 
L 197.204882 -104.941773 
L 199.083098 -103.705668 
L 200.961314 -102.469563 
L 202.83953 -101.233458 
L 204.717745 -99.997353 
L 206.595961 -98.761248 
L 208.474177 -97.525143 
L 210.352393 -96.289038 
L 212.230608 -95.052933 
L 214.108824 -93.816828 
L 215.98704 -92.580723 
L 217.865256 -91.344618 
L 219.743471 -90.108513 
L 221.621687 -88.872408 
L 223.499903 -87.636303 
L 225.378119 -86.400197 
L 227.256335 -85.164092 
L 229.13455 -83.927987 
L 231.012766 -82.691882 
L 232.890982 -81.455777 
L 234.769198 -80.219672 
L 236.647413 -78.983567 
L 238.525629 -77.747462 
L 240.403845 -76.511357 
L 242.282061 -75.275252 
L 244.160276 -74.039147 
L 246.038492 -72.803042 
L 247.916708 -71.566937 
L 249.794924 -70.330832 
L 251.67314 -69.094727 
L 253.551355 -67.858622 
L 255.429571 -66.622517 
L 257.307787 -65.386411 
L 259.186003 -64.150306 
L 261.064218 -62.914201 
L 262.942434 -61.678096 
L 264.82065 -60.441991 
L 266.698866 -59.205886 
L 268.577081 -57.969781 
L 270.455297 -56.733676 
L 272.333513 -55.497571 
L 272.333513 -327.952116 
L 272.333513 -327.952116 
L 270.455297 -326.201872 
L 268.577081 -324.451628 
L 266.698866 -322.701383 
L 264.82065 -320.951139 
L 262.942434 -319.200895 
L 261.064218 -317.45065 
L 259.186003 -315.701388 
L 257.307787 -313.952804 
L 255.429571 -312.20422 
L 253.551355 -310.455635 
L 251.67314 -308.707051 
L 249.794924 -306.958467 
L 247.916708 -305.209883 
L 246.038492 -303.461298 
L 244.160276 -301.712714 
L 242.282061 -299.96413 
L 240.403845 -298.215546 
L 238.525629 -296.466961 
L 236.647413 -294.718377 
L 234.769198 -292.969793 
L 232.890982 -291.221208 
L 231.012766 -289.472624 
L 229.13455 -287.72404 
L 227.256335 -285.975456 
L 225.378119 -284.226871 
L 223.499903 -282.478287 
L 221.621687 -280.729703 
L 219.743471 -278.981119 
L 217.865256 -277.232534 
L 215.98704 -275.48395 
L 214.108824 -273.735366 
L 212.230608 -271.986782 
L 210.352393 -270.238197 
L 208.474177 -268.489613 
L 206.595961 -266.741029 
L 204.717745 -264.992444 
L 202.83953 -263.24386 
L 200.961314 -261.495276 
L 199.083098 -259.746692 
L 197.204882 -257.998107 
L 195.326667 -256.249523 
L 193.448451 -254.500939 
L 191.570235 -252.752355 
L 189.692019 -251.00377 
L 187.813803 -249.255186 
L 185.935588 -247.506602 
L 184.057372 -245.758018 
L 182.179156 -244.009433 
L 180.30094 -242.260849 
L 178.422725 -240.512265 
L 176.544509 -238.76368 
L 174.666293 -237.015096 
L 172.788077 -235.266512 
L 170.909862 -233.517928 
L 169.031646 -231.769343 
L 167.15343 -230.020759 
L 165.275214 -228.272175 
L 163.396999 -226.523591 
L 161.518783 -224.775006 
L 159.640567 -223.026422 
L 157.762351 -221.277838 
L 155.884135 -219.529254 
L 154.00592 -217.780669 
L 152.127704 -216.032085 
L 150.249488 -214.283501 
L 148.371272 -212.534917 
L 146.493057 -210.786332 
L 144.614841 -209.037748 
L 142.736625 -207.289164 
L 140.858409 -205.540579 
L 138.980194 -203.791995 
L 137.101978 -202.043411 
L 135.223762 -200.294827 
L 133.345546 -198.546242 
L 131.46733 -196.797658 
L 129.589115 -195.049074 
L 127.710899 -193.30049 
L 125.832683 -191.551905 
L 123.954467 -189.803321 
L 122.076252 -188.054737 
L 120.198036 -186.306153 
L 118.31982 -184.557568 
L 116.441604 -182.808984 
L 114.563389 -181.0604 
L 112.685173 -179.691241 
L 110.806957 -179.509754 
L 108.928741 -177.703065 
L 107.050526 -178.3042 
L 105.17231 -177.339619 
L 103.294094 -176.486478 
L 101.415878 -174.825839 
L 99.537662 -174.980435 
L 97.659447 -175.14647 
L 95.781231 -175.646349 
L 93.903015 -175.916964 
L 92.024799 -176.079501 
L 90.146584 -177.067551 
L 88.268368 -178.275513 
L 86.390152 -179.483474 
z
" style="stroke: #ffffff; stroke-opacity: 0.15"/>
    </defs>
    <g clip-path="url(#p16f28d9a74)">
     <use xlink:href="#mc38a0912ca" x="0" y="348.774844" style="fill: #35b779; fill-opacity: 0.15; stroke: #ffffff; stroke-opacity: 0.15"/>
    </g>
   </g>
   <g id="PathCollection_5">
    <defs>
     <path id="m73029f4fd4" d="M 0 3 
C 0.795609 3 1.55874 2.683901 2.12132 2.12132 
C 2.683901 1.55874 3 0.795609 3 0 
C 3 -0.795609 2.683901 -1.55874 2.12132 -2.12132 
C 1.55874 -2.683901 0.795609 -3 0 -3 
C -0.795609 -3 -1.55874 -2.683901 -2.12132 -2.12132 
C -2.683901 -1.55874 -3 -0.795609 -3 0 
C -3 0.795609 -2.683901 1.55874 -2.12132 2.12132 
C -1.55874 2.683901 -0.795609 3 0 3 
z
" style="stroke: #90d743; stroke-opacity: 0.8"/>
    </defs>
    <g clip-path="url(#p16f28d9a74)">
     <use xlink:href="#m73029f4fd4" x="57.783481" y="218.037461" style="fill: #90d743; fill-opacity: 0.8; stroke: #90d743; stroke-opacity: 0.8"/>
     <use xlink:href="#m73029f4fd4" x="100.693488" y="176.15369" style="fill: #90d743; fill-opacity: 0.8; stroke: #90d743; stroke-opacity: 0.8"/>
     <use xlink:href="#m73029f4fd4" x="107.845155" y="173.703776" style="fill: #90d743; fill-opacity: 0.8; stroke: #90d743; stroke-opacity: 0.8"/>
     <use xlink:href="#m73029f4fd4" x="93.54182" y="183.036571" style="fill: #90d743; fill-opacity: 0.8; stroke: #90d743; stroke-opacity: 0.8"/>
     <use xlink:href="#m73029f4fd4" x="329.546855" y="188.576771" style="fill: #90d743; fill-opacity: 0.8; stroke: #90d743; stroke-opacity: 0.8"/>
     <use xlink:href="#m73029f4fd4" x="143.603494" y="192.971451" style="fill: #90d743; fill-opacity: 0.8; stroke: #90d743; stroke-opacity: 0.8"/>
     <use xlink:href="#m73029f4fd4" x="172.210165" y="170.346458" style="fill: #90d743; fill-opacity: 0.8; stroke: #90d743; stroke-opacity: 0.8"/>
     <use xlink:href="#m73029f4fd4" x="100.693488" y="173.19648" style="fill: #90d743; fill-opacity: 0.8; stroke: #90d743; stroke-opacity: 0.8"/>
    </g>
   </g>
   <g id="PolyCollection_5">
    <defs>
     <path id="ma484f2ff70" d="M 57.783481 -178.691656 
L 57.783481 -132.312166 
L 60.528566 -134.79982 
L 63.27365 -136.96565 
L 66.018735 -139.22035 
L 68.76382 -141.643836 
L 71.508904 -144.116681 
L 74.253989 -144.998945 
L 76.999073 -145.804276 
L 79.744158 -146.330934 
L 82.489242 -146.71837 
L 85.234327 -147.221189 
L 87.979412 -148.088989 
L 90.724496 -148.601937 
L 93.469581 -148.797745 
L 96.214665 -149.274456 
L 98.95975 -149.5359 
L 101.704834 -149.966767 
L 104.449919 -150.541718 
L 107.195004 -151.05422 
L 109.940088 -151.257657 
L 112.685173 -151.47593 
L 115.430257 -151.649711 
L 118.175342 -152.063327 
L 120.920427 -152.259932 
L 123.665511 -152.459378 
L 126.410596 -152.66069 
L 129.15568 -153.004046 
L 131.900765 -153.36152 
L 134.645849 -153.570787 
L 137.390934 -153.701186 
L 140.136019 -153.832045 
L 142.881103 -153.965002 
L 145.626188 -154.093688 
L 148.371272 -154.238273 
L 151.116357 -154.107563 
L 153.861442 -154.228458 
L 156.606526 -154.192998 
L 159.351611 -154.061068 
L 162.096695 -153.498366 
L 164.84178 -153.674173 
L 167.586864 -153.841421 
L 170.331949 -153.976532 
L 173.077034 -154.061907 
L 175.822118 -154.335146 
L 178.567203 -154.528541 
L 181.312287 -154.712544 
L 184.057372 -154.892084 
L 186.802457 -155.066385 
L 189.547541 -155.240685 
L 192.292626 -155.414986 
L 195.03771 -155.589286 
L 197.782795 -155.763587 
L 200.527879 -155.937888 
L 203.272964 -156.112188 
L 206.018049 -156.286489 
L 208.763133 -156.248973 
L 211.508218 -155.883461 
L 214.253302 -156.07393 
L 216.998387 -156.298858 
L 219.743471 -156.519686 
L 222.488556 -156.495066 
L 225.233641 -156.711912 
L 227.978725 -156.933237 
L 230.72381 -157.106439 
L 233.468894 -156.781049 
L 236.213979 -156.902312 
L 238.959064 -157.0464 
L 241.704148 -157.150568 
L 244.449233 -157.337045 
L 247.194317 -157.578127 
L 249.939402 -157.817579 
L 252.684486 -158.001084 
L 255.429571 -158.184589 
L 258.174656 -158.368093 
L 260.91974 -158.551598 
L 263.664825 -158.592024 
L 266.409909 -158.565822 
L 269.154994 -158.419983 
L 271.900079 -158.330182 
L 274.645163 -158.186518 
L 277.390248 -158.265194 
L 280.135332 -158.087386 
L 282.880417 -157.895593 
L 285.625501 -157.703801 
L 288.370586 -157.715768 
L 291.115671 -157.628258 
L 293.860755 -157.447203 
L 296.60584 -157.266148 
L 299.350924 -157.085094 
L 302.096009 -156.904039 
L 304.841094 -156.722984 
L 307.586178 -156.541929 
L 310.331263 -156.360874 
L 313.076347 -156.179819 
L 315.821432 -156.034115 
L 318.566516 -155.889613 
L 321.311601 -155.74592 
L 324.056686 -155.602485 
L 326.80177 -155.459051 
L 329.546855 -155.315616 
L 329.546855 -323.379379 
L 329.546855 -323.379379 
L 326.80177 -321.572423 
L 324.056686 -319.765467 
L 321.311601 -317.958511 
L 318.566516 -316.151554 
L 315.821432 -314.344598 
L 313.076347 -312.537642 
L 310.331263 -310.730686 
L 307.586178 -308.92373 
L 304.841094 -307.116774 
L 302.096009 -305.309817 
L 299.350924 -303.502861 
L 296.60584 -301.695905 
L 293.860755 -299.888949 
L 291.115671 -298.081993 
L 288.370586 -296.275037 
L 285.625501 -294.46808 
L 282.880417 -292.661124 
L 280.135332 -290.854168 
L 277.390248 -289.047212 
L 274.645163 -287.240256 
L 271.900079 -285.433299 
L 269.154994 -283.626343 
L 266.409909 -281.819387 
L 263.664825 -280.012431 
L 260.91974 -278.205475 
L 258.174656 -276.398519 
L 255.429571 -274.591562 
L 252.684486 -272.784606 
L 249.939402 -270.97765 
L 247.194317 -269.170694 
L 244.449233 -267.363738 
L 241.704148 -265.556782 
L 238.959064 -263.749825 
L 236.213979 -261.942869 
L 233.468894 -260.135913 
L 230.72381 -258.328957 
L 227.978725 -256.522001 
L 225.233641 -254.715044 
L 222.488556 -252.908088 
L 219.743471 -251.101132 
L 216.998387 -249.294176 
L 214.253302 -247.48722 
L 211.508218 -245.680264 
L 208.763133 -243.873307 
L 206.018049 -242.066351 
L 203.272964 -240.259395 
L 200.527879 -238.452439 
L 197.782795 -236.645483 
L 195.03771 -234.838526 
L 192.292626 -233.03157 
L 189.547541 -231.224614 
L 186.802457 -229.417658 
L 184.057372 -227.610702 
L 181.312287 -225.803746 
L 178.567203 -223.996789 
L 175.822118 -222.189833 
L 173.077034 -220.382877 
L 170.331949 -218.575921 
L 167.586864 -216.768965 
L 164.84178 -214.962009 
L 162.096695 -213.155052 
L 159.351611 -211.348096 
L 156.606526 -209.54114 
L 153.861442 -207.734184 
L 151.116357 -205.927228 
L 148.371272 -204.120271 
L 145.626188 -202.313315 
L 142.881103 -200.506359 
L 140.136019 -198.699403 
L 137.390934 -196.892447 
L 134.645849 -195.085491 
L 131.900765 -193.278534 
L 129.15568 -191.471578 
L 126.410596 -189.664622 
L 123.665511 -187.857666 
L 120.920427 -186.05071 
L 118.175342 -184.243754 
L 115.430257 -182.436797 
L 112.685173 -180.592436 
L 109.940088 -178.16875 
L 107.195004 -176.843242 
L 104.449919 -175.522648 
L 101.704834 -174.646824 
L 98.95975 -174.764371 
L 96.214665 -174.88312 
L 93.469581 -175.030668 
L 90.724496 -175.205653 
L 87.979412 -175.327458 
L 85.234327 -175.619275 
L 82.489242 -176.002336 
L 79.744158 -176.466061 
L 76.999073 -176.849707 
L 74.253989 -177.034718 
L 71.508904 -177.206357 
L 68.76382 -177.812965 
L 66.018735 -178.024531 
L 63.27365 -178.144008 
L 60.528566 -178.263485 
L 57.783481 -178.691656 
z
" style="stroke: #ffffff; stroke-opacity: 0.15"/>
    </defs>
    <g clip-path="url(#p16f28d9a74)">
     <use xlink:href="#ma484f2ff70" x="0" y="348.774844" style="fill: #90d743; fill-opacity: 0.15; stroke: #ffffff; stroke-opacity: 0.15"/>
    </g>
   </g>
   <g id="line2d_17">
    <path d="M 79.238484 178.750861 
L 80.394309 178.772674 
L 81.550135 178.794487 
L 82.70596 178.816299 
L 83.861785 178.838112 
L 85.01761 178.859925 
L 86.173435 178.881738 
L 87.32926 178.90355 
L 88.485085 178.925363 
L 89.64091 178.947176 
L 90.796735 178.968989 
L 91.95256 178.990802 
L 93.108385 179.012614 
L 94.26421 179.034427 
L 95.420036 179.05624 
L 96.575861 179.078053 
L 97.731686 179.099865 
L 98.887511 179.121678 
L 100.043336 179.143491 
L 101.199161 179.165304 
L 102.354986 179.187117 
L 103.510811 179.208929 
L 104.666636 179.230742 
L 105.822461 179.252555 
L 106.978286 179.274368 
L 108.134112 179.29618 
L 109.289937 179.317993 
L 110.445762 179.339806 
L 111.601587 179.361619 
L 112.757412 179.383432 
L 113.913237 179.405244 
L 115.069062 179.427057 
L 116.224887 179.44887 
L 117.380712 179.470683 
L 118.536537 179.492495 
L 119.692362 179.514308 
L 120.848187 179.536121 
L 122.004013 179.557934 
L 123.159838 179.579747 
L 124.315663 179.601559 
L 125.471488 179.623372 
L 126.627313 179.645185 
L 127.783138 179.666998 
L 128.938963 179.68881 
L 130.094788 179.710623 
L 131.250613 179.732436 
L 132.406438 179.754249 
L 133.562263 179.776062 
L 134.718089 179.797874 
L 135.873914 179.819687 
L 137.029739 179.8415 
L 138.185564 179.863313 
L 139.341389 179.885125 
L 140.497214 179.906938 
L 141.653039 179.928751 
L 142.808864 179.950564 
L 143.964689 179.972377 
L 145.120514 179.994189 
L 146.276339 180.016002 
L 147.432164 180.037815 
L 148.58799 180.059628 
L 149.743815 180.08144 
L 150.89964 180.103253 
L 152.055465 180.125066 
L 153.21129 180.146879 
L 154.367115 180.168692 
L 155.52294 180.190504 
L 156.678765 180.212317 
L 157.83459 180.23413 
L 158.990415 180.255943 
L 160.14624 180.277755 
L 161.302066 180.299568 
L 162.457891 180.321381 
L 163.613716 180.343194 
L 164.769541 180.365007 
L 165.925366 180.386819 
L 167.081191 180.408632 
L 168.237016 180.430445 
L 169.392841 180.452258 
L 170.548666 180.474071 
L 171.704491 180.495883 
L 172.860316 180.517696 
L 174.016141 180.539509 
L 175.171967 180.561322 
L 176.327792 180.583134 
L 177.483617 180.604947 
L 178.639442 180.62676 
L 179.795267 180.648573 
L 180.951092 180.670386 
L 182.106917 180.692198 
L 183.262742 180.714011 
L 184.418567 180.735824 
L 185.574392 180.757637 
L 186.730217 180.779449 
L 187.886043 180.801262 
L 189.041868 180.823075 
L 190.197693 180.844888 
L 191.353518 180.866701 
L 192.509343 180.888513 
L 193.665168 180.910326 
" clip-path="url(#p16f28d9a74)" style="fill: none; stroke: #443983; stroke-width: 2.25; stroke-linecap: round"/>
   </g>
   <g id="line2d_18">
    <path d="M 122.148491 207.118671 
L 122.292969 207.100563 
L 122.437447 207.082455 
L 122.581925 207.064346 
L 122.726403 207.046238 
L 122.870881 207.028129 
L 123.01536 207.010021 
L 123.159838 206.991913 
L 123.304316 206.973804 
L 123.448794 206.955696 
L 123.593272 206.937587 
L 123.73775 206.919479 
L 123.882228 206.901371 
L 124.026706 206.883262 
L 124.171185 206.865154 
L 124.315663 206.847046 
L 124.460141 206.828937 
L 124.604619 206.810829 
L 124.749097 206.79272 
L 124.893575 206.774612 
L 125.038053 206.756504 
L 125.182532 206.738395 
L 125.32701 206.720287 
L 125.471488 206.702178 
L 125.615966 206.68407 
L 125.760444 206.665962 
L 125.904922 206.647853 
L 126.0494 206.629745 
L 126.193879 206.611636 
L 126.338357 206.593528 
L 126.482835 206.57542 
L 126.627313 206.557311 
L 126.771791 206.539203 
L 126.916269 206.521095 
L 127.060747 206.502986 
L 127.205225 206.484878 
L 127.349704 206.466769 
L 127.494182 206.448661 
L 127.63866 206.430553 
L 127.783138 206.412444 
L 127.927616 206.394336 
L 128.072094 206.376227 
L 128.216572 206.358119 
L 128.361051 206.340011 
L 128.505529 206.321902 
L 128.650007 206.303794 
L 128.794485 206.285685 
L 128.938963 206.267577 
L 129.083441 206.249469 
L 129.227919 206.23136 
L 129.372398 206.213252 
L 129.516876 206.195143 
L 129.661354 206.177035 
L 129.805832 206.158927 
L 129.95031 206.140818 
L 130.094788 206.12271 
L 130.239266 206.104602 
L 130.383744 206.086493 
L 130.528223 206.068385 
L 130.672701 206.050276 
L 130.817179 206.032168 
L 130.961657 206.01406 
L 131.106135 205.995951 
L 131.250613 205.977843 
L 131.395091 205.959734 
L 131.53957 205.941626 
L 131.684048 205.923518 
L 131.828526 205.905409 
L 131.973004 205.887301 
L 132.117482 205.869192 
L 132.26196 205.851084 
L 132.406438 205.832976 
L 132.550916 205.814867 
L 132.695395 205.796759 
L 132.839873 205.778651 
L 132.984351 205.760542 
L 133.128829 205.742434 
L 133.273307 205.724325 
L 133.417785 205.706217 
L 133.562263 205.688109 
L 133.706742 205.67 
L 133.85122 205.651892 
L 133.995698 205.633783 
L 134.140176 205.615675 
L 134.284654 205.597567 
L 134.429132 205.579458 
L 134.57361 205.56135 
L 134.718089 205.543241 
L 134.862567 205.525133 
L 135.007045 205.507025 
L 135.151523 205.488916 
L 135.296001 205.470808 
L 135.440479 205.452699 
L 135.584957 205.434591 
L 135.729435 205.416483 
L 135.873914 205.398374 
L 136.018392 205.380266 
L 136.16287 205.362158 
L 136.307348 205.344049 
L 136.451826 205.325941 
" clip-path="url(#p16f28d9a74)" style="fill: none; stroke: #31688e; stroke-width: 2.25; stroke-linecap: round"/>
   </g>
   <g id="line2d_19">
    <path d="M 107.845155 198.446364 
L 107.917394 198.838009 
L 107.989633 199.229654 
L 108.061872 199.621299 
L 108.134112 200.012944 
L 108.206351 200.404589 
L 108.27859 200.796233 
L 108.350829 201.187878 
L 108.423068 201.579523 
L 108.495307 201.971168 
L 108.567546 202.362813 
L 108.639785 202.754457 
L 108.712024 203.146102 
L 108.784263 203.537747 
L 108.856502 203.929392 
L 108.928741 204.321037 
L 109.00098 204.712682 
L 109.073219 205.104326 
L 109.145458 205.495971 
L 109.217698 205.887616 
L 109.289937 206.279261 
L 109.362176 206.670906 
L 109.434415 207.06255 
L 109.506654 207.454195 
L 109.578893 207.84584 
L 109.651132 208.237485 
L 109.723371 208.62913 
L 109.79561 209.020774 
L 109.867849 209.412419 
L 109.940088 209.804064 
L 110.012327 210.195709 
L 110.084566 210.587354 
L 110.156805 210.978999 
L 110.229045 211.370643 
L 110.301284 211.762288 
L 110.373523 212.153933 
L 110.445762 212.545578 
L 110.518001 212.937223 
L 110.59024 213.328867 
L 110.662479 213.720512 
L 110.734718 214.112157 
L 110.806957 214.503802 
L 110.879196 214.895447 
L 110.951435 215.287092 
L 111.023674 215.678736 
L 111.095913 216.070381 
L 111.168152 216.462026 
L 111.240391 216.853671 
L 111.312631 217.245316 
L 111.38487 217.63696 
L 111.457109 218.028605 
L 111.529348 218.42025 
L 111.601587 218.811895 
L 111.673826 219.20354 
L 111.746065 219.595184 
L 111.818304 219.986829 
L 111.890543 220.378474 
L 111.962782 220.770119 
L 112.035021 221.161764 
L 112.10726 221.553409 
L 112.179499 221.945053 
L 112.251738 222.336698 
L 112.323977 222.728343 
L 112.396217 223.119988 
L 112.468456 223.511633 
L 112.540695 223.903277 
L 112.612934 224.294922 
L 112.685173 224.686567 
L 112.757412 225.078212 
L 112.829651 225.469857 
L 112.90189 225.861501 
L 112.974129 226.253146 
L 113.046368 226.644791 
L 113.118607 227.036436 
L 113.190846 227.428081 
L 113.263085 227.819726 
L 113.335324 228.21137 
L 113.407563 228.603015 
L 113.479803 228.99466 
L 113.552042 229.386305 
L 113.624281 229.77795 
L 113.69652 230.169594 
L 113.768759 230.561239 
L 113.840998 230.952884 
L 113.913237 231.344529 
L 113.985476 231.736174 
L 114.057715 232.127819 
L 114.129954 232.519463 
L 114.202193 232.911108 
L 114.274432 233.302753 
L 114.346671 233.694398 
L 114.41891 234.086043 
L 114.49115 234.477687 
L 114.563389 234.869332 
L 114.635628 235.260977 
L 114.707867 235.652622 
L 114.780106 236.044267 
L 114.852345 236.435911 
L 114.924584 236.827556 
L 114.996823 237.219201 
" clip-path="url(#p16f28d9a74)" style="fill: none; stroke: #21918c; stroke-width: 2.25; stroke-linecap: round"/>
   </g>
   <g id="line2d_20">
    <path d="M 86.390152 188.600236 
L 88.268368 188.637981 
L 90.146584 188.675726 
L 92.024799 188.713472 
L 93.903015 188.751217 
L 95.781231 188.788962 
L 97.659447 188.826708 
L 99.537662 188.864453 
L 101.415878 188.902198 
L 103.294094 188.939944 
L 105.17231 188.977689 
L 107.050526 189.015434 
L 108.928741 189.05318 
L 110.806957 189.090925 
L 112.685173 189.12867 
L 114.563389 189.166416 
L 116.441604 189.204161 
L 118.31982 189.241906 
L 120.198036 189.279652 
L 122.076252 189.317397 
L 123.954467 189.355142 
L 125.832683 189.392888 
L 127.710899 189.430633 
L 129.589115 189.468378 
L 131.46733 189.506124 
L 133.345546 189.543869 
L 135.223762 189.581614 
L 137.101978 189.61936 
L 138.980194 189.657105 
L 140.858409 189.69485 
L 142.736625 189.732596 
L 144.614841 189.770341 
L 146.493057 189.808086 
L 148.371272 189.845832 
L 150.249488 189.883577 
L 152.127704 189.921322 
L 154.00592 189.959068 
L 155.884135 189.996813 
L 157.762351 190.034558 
L 159.640567 190.072304 
L 161.518783 190.110049 
L 163.396999 190.147794 
L 165.275214 190.18554 
L 167.15343 190.223285 
L 169.031646 190.26103 
L 170.909862 190.298776 
L 172.788077 190.336521 
L 174.666293 190.374266 
L 176.544509 190.412012 
L 178.422725 190.449757 
L 180.30094 190.487502 
L 182.179156 190.525248 
L 184.057372 190.562993 
L 185.935588 190.600738 
L 187.813803 190.638484 
L 189.692019 190.676229 
L 191.570235 190.713974 
L 193.448451 190.75172 
L 195.326667 190.789465 
L 197.204882 190.82721 
L 199.083098 190.864956 
L 200.961314 190.902701 
L 202.83953 190.940446 
L 204.717745 190.978192 
L 206.595961 191.015937 
L 208.474177 191.053682 
L 210.352393 191.091428 
L 212.230608 191.129173 
L 214.108824 191.166918 
L 215.98704 191.204664 
L 217.865256 191.242409 
L 219.743471 191.280154 
L 221.621687 191.3179 
L 223.499903 191.355645 
L 225.378119 191.393391 
L 227.256335 191.431136 
L 229.13455 191.468881 
L 231.012766 191.506627 
L 232.890982 191.544372 
L 234.769198 191.582117 
L 236.647413 191.619863 
L 238.525629 191.657608 
L 240.403845 191.695353 
L 242.282061 191.733099 
L 244.160276 191.770844 
L 246.038492 191.808589 
L 247.916708 191.846335 
L 249.794924 191.88408 
L 251.67314 191.921825 
L 253.551355 191.959571 
L 255.429571 191.997316 
L 257.307787 192.035061 
L 259.186003 192.072807 
L 261.064218 192.110552 
L 262.942434 192.148297 
L 264.82065 192.186043 
L 266.698866 192.223788 
L 268.577081 192.261533 
L 270.455297 192.299279 
L 272.333513 192.337024 
" clip-path="url(#p16f28d9a74)" style="fill: none; stroke: #35b779; stroke-width: 2.25; stroke-linecap: round"/>
   </g>
   <g id="line2d_21">
    <path d="M 57.783481 186.470018 
L 60.528566 186.402899 
L 63.27365 186.335781 
L 66.018735 186.268663 
L 68.76382 186.201544 
L 71.508904 186.134426 
L 74.253989 186.067308 
L 76.999073 186.000189 
L 79.744158 185.933071 
L 82.489242 185.865953 
L 85.234327 185.798834 
L 87.979412 185.731716 
L 90.724496 185.664598 
L 93.469581 185.597479 
L 96.214665 185.530361 
L 98.95975 185.463243 
L 101.704834 185.396124 
L 104.449919 185.329006 
L 107.195004 185.261888 
L 109.940088 185.194769 
L 112.685173 185.127651 
L 115.430257 185.060533 
L 118.175342 184.993414 
L 120.920427 184.926296 
L 123.665511 184.859178 
L 126.410596 184.792059 
L 129.15568 184.724941 
L 131.900765 184.657823 
L 134.645849 184.590704 
L 137.390934 184.523586 
L 140.136019 184.456468 
L 142.881103 184.389349 
L 145.626188 184.322231 
L 148.371272 184.255113 
L 151.116357 184.187994 
L 153.861442 184.120876 
L 156.606526 184.053758 
L 159.351611 183.986639 
L 162.096695 183.919521 
L 164.84178 183.852403 
L 167.586864 183.785284 
L 170.331949 183.718166 
L 173.077034 183.651048 
L 175.822118 183.583929 
L 178.567203 183.516811 
L 181.312287 183.449693 
L 184.057372 183.382574 
L 186.802457 183.315456 
L 189.547541 183.248338 
L 192.292626 183.181219 
L 195.03771 183.114101 
L 197.782795 183.046983 
L 200.527879 182.979864 
L 203.272964 182.912746 
L 206.018049 182.845628 
L 208.763133 182.778509 
L 211.508218 182.711391 
L 214.253302 182.644273 
L 216.998387 182.577154 
L 219.743471 182.510036 
L 222.488556 182.442918 
L 225.233641 182.375799 
L 227.978725 182.308681 
L 230.72381 182.241563 
L 233.468894 182.174444 
L 236.213979 182.107326 
L 238.959064 182.040208 
L 241.704148 181.973089 
L 244.449233 181.905971 
L 247.194317 181.838853 
L 249.939402 181.771734 
L 252.684486 181.704616 
L 255.429571 181.637498 
L 258.174656 181.570379 
L 260.91974 181.503261 
L 263.664825 181.436143 
L 266.409909 181.369024 
L 269.154994 181.301906 
L 271.900079 181.234788 
L 274.645163 181.167669 
L 277.390248 181.100551 
L 280.135332 181.033433 
L 282.880417 180.966314 
L 285.625501 180.899196 
L 288.370586 180.832078 
L 291.115671 180.764959 
L 293.860755 180.697841 
L 296.60584 180.630723 
L 299.350924 180.563604 
L 302.096009 180.496486 
L 304.841094 180.429368 
L 307.586178 180.362249 
L 310.331263 180.295131 
L 313.076347 180.228013 
L 315.821432 180.160894 
L 318.566516 180.093776 
L 321.311601 180.026658 
L 324.056686 179.959539 
L 326.80177 179.892421 
L 329.546855 179.825303 
" clip-path="url(#p16f28d9a74)" style="fill: none; stroke: #90d743; stroke-width: 2.25; stroke-linecap: round"/>
   </g>
   <g id="patch_3">
    <path d="M 44.195313 306.9 
L 44.195313 7.2 
" style="fill: none; stroke: #cccccc; stroke-width: 1.25; stroke-linejoin: miter; stroke-linecap: square"/>
   </g>
   <g id="patch_4">
    <path d="M 44.195312 306.9 
L 343.135023 306.9 
" style="fill: none; stroke: #cccccc; stroke-width: 1.25; stroke-linejoin: miter; stroke-linecap: square"/>
   </g>
  </g>
  <g id="legend_1">
   <g id="text_19">
    <!-- seniority -->
    <g style="fill: #262626" transform="translate(347.919073 138.519687) scale(0.12 -0.12)">
     <defs>
      <path id="ArialMT-73" d="M 197 991 
L 753 1078 
Q 800 744 1014 566 
Q 1228 388 1613 388 
Q 2000 388 2187 545 
Q 2375 703 2375 916 
Q 2375 1106 2209 1216 
Q 2094 1291 1634 1406 
Q 1016 1563 777 1677 
Q 538 1791 414 1992 
Q 291 2194 291 2438 
Q 291 2659 392 2848 
Q 494 3038 669 3163 
Q 800 3259 1026 3326 
Q 1253 3394 1513 3394 
Q 1903 3394 2198 3281 
Q 2494 3169 2634 2976 
Q 2775 2784 2828 2463 
L 2278 2388 
Q 2241 2644 2061 2787 
Q 1881 2931 1553 2931 
Q 1166 2931 1000 2803 
Q 834 2675 834 2503 
Q 834 2394 903 2306 
Q 972 2216 1119 2156 
Q 1203 2125 1616 2013 
Q 2213 1853 2448 1751 
Q 2684 1650 2818 1456 
Q 2953 1263 2953 975 
Q 2953 694 2789 445 
Q 2625 197 2315 61 
Q 2006 -75 1616 -75 
Q 969 -75 630 194 
Q 291 463 197 991 
z
" transform="scale(0.015625)"/>
      <path id="ArialMT-74" d="M 1650 503 
L 1731 6 
Q 1494 -44 1306 -44 
Q 1000 -44 831 53 
Q 663 150 594 308 
Q 525 466 525 972 
L 525 2881 
L 113 2881 
L 113 3319 
L 525 3319 
L 525 4141 
L 1084 4478 
L 1084 3319 
L 1650 3319 
L 1650 2881 
L 1084 2881 
L 1084 941 
Q 1084 700 1114 631 
Q 1144 563 1211 522 
Q 1278 481 1403 481 
Q 1497 481 1650 503 
z
" transform="scale(0.015625)"/>
     </defs>
     <use xlink:href="#ArialMT-73"/>
     <use xlink:href="#ArialMT-65" x="50"/>
     <use xlink:href="#ArialMT-6e" x="105.615234"/>
     <use xlink:href="#ArialMT-69" x="161.230469"/>
     <use xlink:href="#ArialMT-6f" x="183.447266"/>
     <use xlink:href="#ArialMT-72" x="239.0625"/>
     <use xlink:href="#ArialMT-69" x="272.363281"/>
     <use xlink:href="#ArialMT-74" x="294.580078"/>
     <use xlink:href="#ArialMT-79" x="322.363281"/>
    </g>
   </g>
   <g id="PathCollection_6">
    <g>
     <use xlink:href="#meffe23283a" x="362.801183" y="151.531406" style="fill: #443983; fill-opacity: 0.8; stroke: #443983; stroke-opacity: 0.8"/>
    </g>
   </g>
   <g id="text_20">
    <!-- 0 -->
    <g style="fill: #262626" transform="translate(382.601183 154.418906) scale(0.11 -0.11)">
     <use xlink:href="#ArialMT-30"/>
    </g>
   </g>
   <g id="PathCollection_7">
    <g>
     <use xlink:href="#m710f8f0b3f" x="362.801183" y="167.09125" style="fill: #31688e; fill-opacity: 0.8; stroke: #31688e; stroke-opacity: 0.8"/>
    </g>
   </g>
   <g id="text_21">
    <!-- 1 -->
    <g style="fill: #262626" transform="translate(382.601183 169.97875) scale(0.11 -0.11)">
     <use xlink:href="#ArialMT-31"/>
    </g>
   </g>
   <g id="PathCollection_8">
    <g>
     <use xlink:href="#m78a97ab2d3" x="362.801183" y="182.651094" style="fill: #21918c; fill-opacity: 0.8; stroke: #21918c; stroke-opacity: 0.8"/>
    </g>
   </g>
   <g id="text_22">
    <!-- 2 -->
    <g style="fill: #262626" transform="translate(382.601183 185.538594) scale(0.11 -0.11)">
     <use xlink:href="#ArialMT-32"/>
    </g>
   </g>
   <g id="PathCollection_9">
    <g>
     <use xlink:href="#ma198d8fd97" x="362.801183" y="198.210938" style="fill: #35b779; fill-opacity: 0.8; stroke: #35b779; stroke-opacity: 0.8"/>
    </g>
   </g>
   <g id="text_23">
    <!-- 3 -->
    <g style="fill: #262626" transform="translate(382.601183 201.098437) scale(0.11 -0.11)">
     <use xlink:href="#ArialMT-33"/>
    </g>
   </g>
   <g id="PathCollection_10">
    <g>
     <use xlink:href="#m73029f4fd4" x="362.801183" y="213.770781" style="fill: #90d743; fill-opacity: 0.8; stroke: #90d743; stroke-opacity: 0.8"/>
    </g>
   </g>
   <g id="text_24">
    <!-- 4 -->
    <g style="fill: #262626" transform="translate(382.601183 216.658281) scale(0.11 -0.11)">
     <use xlink:href="#ArialMT-34"/>
    </g>
   </g>
  </g>
 </g>
 <defs>
  <clipPath id="p16f28d9a74">
   <rect x="44.195313" y="7.2" width="298.939711" height="299.7"/>
  </clipPath>
 </defs>
</svg>
